<svg width="128" height="128" viewBox="0 0 128 128" fill="none" xmlns="http://www.w3.org/2000/svg">
<rect width="128" height="128" fill="white"/>
<path d="M35.0191 77.7837V75.418H38.124C39.3068 75.418 40.2679 75.2948 41.0071 75.0484C41.7957 74.802 42.3871 74.2845 42.7814 73.4959C43.1756 72.6581 43.3728 71.4013 43.3728 69.7257V27.8831H34.4276C33.097 27.8831 32.062 28.1049 31.3227 28.5485C30.5835 28.992 30.066 29.6327 29.7703 30.4706C29.4746 31.2591 29.2528 32.2695 29.1049 33.5016L28.8092 37.124H26L26.4436 25H65.4029L65.8465 37.124H63.0373L62.7416 33.5016C62.6923 32.2695 62.4952 31.2591 62.1502 30.4706C61.8052 29.6327 61.2631 28.992 60.5238 28.5485C59.8338 28.1049 58.7742 27.8831 57.3449 27.8831H48.3259V69.5778C48.3259 71.2535 48.523 72.5102 48.9173 73.3481C49.3116 74.1859 49.8783 74.7527 50.6176 75.0484C51.4062 75.2948 52.3918 75.418 53.5747 75.418H56.6057V77.7837H35.0191Z" fill="black"/>
<path d="M56.8641 104V101.634H58.9341C60.0676 101.634 61.004 101.511 61.7433 101.265C62.5318 100.969 63.0986 100.402 63.4436 99.5644C63.8379 98.7266 64.035 97.4698 64.035 95.7941V77.8299H56.4945L56.4622 75.4735H64.0028L64.035 59.3482C64.035 57.6233 63.8379 56.3665 63.4436 55.578C63.0986 54.7401 62.5318 54.198 61.7433 53.9516C61.004 53.7052 60.0923 53.582 59.008 53.582H56.8641V51.2163H78.155C83.1328 51.2163 87.3466 52.3006 90.7965 54.4691C94.2957 56.5883 96.9324 59.644 98.7067 63.636C100.481 67.628 101.368 72.4333 101.368 78.0517C101.368 83.4237 100.53 88.0565 98.8545 91.9499C97.1788 95.8434 94.616 98.8251 91.1661 100.895C87.7655 102.965 83.4778 104 78.3029 104H56.8641ZM76.8983 101.117C81.2846 101.117 84.8824 100.254 87.6916 98.5294C90.5008 96.7552 92.5707 94.1677 93.9014 90.7671C95.2814 87.3172 95.9714 83.0787 95.9714 78.0517C95.9714 73.074 95.2814 68.7862 93.9014 65.1885C92.5215 61.5907 90.4269 58.8554 87.6177 56.9826C84.8577 55.0605 81.3092 54.0995 76.9722 54.0995H69.062V74.9468H83.5517V77.8299H69.062V101.117H76.8983Z" fill="black"/>
</svg>
